<svg width="41" height="41" viewBox="0 0 41 41" fill="none" xmlns="http://www.w3.org/2000/svg">
<g clip-path="url(#clip0_2_105)">
<rect x="0.38501" y="0.5" width="40" height="40" rx="20" fill="black"/>
<path d="M32.0617 6.67507C32.3733 6.56191 32.6272 6.32959 32.7676 6.02922C32.9079 5.72885 32.9232 5.38503 32.81 5.0734C32.6969 4.76177 32.4645 4.50786 32.1642 4.36752C31.8638 4.22718 31.52 4.21191 31.2083 4.32507L10.385 11.8967V5.50007C10.385 5.16855 10.2533 4.85061 10.0189 4.61618C9.78448 4.38176 9.46654 4.25007 9.13502 4.25007H6.63502C6.3035 4.25007 5.98555 4.38176 5.75113 4.61618C5.51671 4.85061 5.38502 5.16855 5.38502 5.50007V13.7167L3.70835 14.3251C3.39672 14.4382 3.14281 14.6705 3.00247 14.9709C2.86213 15.2713 2.84686 15.6151 2.96002 15.9267C3.07318 16.2384 3.30549 16.4923 3.60587 16.6326C3.90624 16.773 4.25005 16.7882 4.56168 16.6751L32.0617 6.67507Z" fill="white"/>
<path fill-rule="evenodd" clip-rule="evenodd" d="M5.41668 19.0251L30.385 9.94507V15.6501L37.0617 18.0767C37.3733 18.1899 37.6272 18.4222 37.7676 18.7226C37.9079 19.023 37.9232 19.3668 37.81 19.6784C37.6968 19.99 37.4645 20.2439 37.1642 20.3843C36.8638 20.5246 36.52 20.5399 36.2083 20.4267L35.385 20.1267V34.2517H36.635C36.9665 34.2517 37.2845 34.3834 37.5189 34.6179C37.7533 34.8523 37.885 35.1702 37.885 35.5017C37.885 35.8333 37.7533 36.1512 37.5189 36.3856C37.2845 36.62 36.9665 36.7517 36.635 36.7517H4.13501C3.80349 36.7517 3.48555 36.62 3.25113 36.3856C3.01671 36.1512 2.88501 35.8333 2.88501 35.5017C2.88501 35.1702 3.01671 34.8523 3.25113 34.6179C3.48555 34.3834 3.80349 34.2517 4.13501 34.2517H5.38501V19.0367L5.41668 19.0267V19.0251ZM30.385 34.2501V18.3084L32.885 19.2167V34.2501H30.385ZM15.385 24.2501C15.0535 24.2501 14.7355 24.3818 14.5011 24.6162C14.2667 24.8506 14.135 25.1685 14.135 25.5001V33.0001C14.135 33.6901 14.695 34.2501 15.385 34.2501H20.385C20.7165 34.2501 21.0345 34.1184 21.2689 33.884C21.5033 33.6495 21.635 33.3316 21.635 33.0001V25.5001C21.635 25.1685 21.5033 24.8506 21.2689 24.6162C21.0345 24.3818 20.7165 24.2501 20.385 24.2501H15.385Z" fill="white"/>
</g>
<defs>
<clipPath id="clip0_2_105">
<rect x="0.38501" y="0.5" width="40" height="40" rx="20" fill="white"/>
</clipPath>
</defs>
</svg>
