<svg width="24" height="24" viewBox="0 0 24 24" fill="none" xmlns="http://www.w3.org/2000/svg">
<path fill-rule="evenodd" clip-rule="evenodd" d="M12.315 2.00018C14.745 2.00018 15.099 2.01318 16.123 2.06018C17.187 2.10918 17.914 2.27818 18.55 2.52518C19.2175 2.77606 19.8222 3.16954 20.322 3.67818C20.8306 4.17796 21.2241 4.78268 21.475 5.45018C21.722 6.08618 21.891 6.81318 21.94 7.87718C21.988 8.94418 22 9.28418 22 12.0002V12.0802C22 14.7232 21.988 15.0672 21.94 16.1232C21.891 17.1872 21.722 17.9142 21.475 18.5502C21.2241 19.2177 20.8306 19.8224 20.322 20.3222C19.8222 20.8308 19.2175 21.2243 18.55 21.4752C17.914 21.7222 17.187 21.8912 16.123 21.9402C15.056 21.9882 14.716 22.0002 12 22.0002H11.92C9.277 22.0002 8.933 21.9882 7.877 21.9402C6.813 21.8912 6.086 21.7222 5.45 21.4752C4.7825 21.2243 4.17777 20.8308 3.678 20.3222C3.16936 19.8224 2.77587 19.2177 2.525 18.5502C2.278 17.9142 2.109 17.1872 2.06 16.1232C2.013 15.0992 2 14.7442 2 12.3152V11.6852C2 9.25518 2.013 8.90118 2.06 7.87718C2.109 6.81318 2.278 6.08618 2.525 5.45018C2.77587 4.78268 3.16936 4.17796 3.678 3.67818C4.17777 3.16954 4.7825 2.77606 5.45 2.52518C6.086 2.27818 6.813 2.10918 7.877 2.06018C8.901 2.01318 9.256 2.00018 11.685 2.00018H12.315ZM12.234 3.80218H11.766C9.31 3.80218 8.982 3.81318 7.959 3.86018C6.984 3.90518 6.455 4.06718 6.102 4.20418C5.635 4.38618 5.302 4.60218 4.952 4.95218C4.602 5.30218 4.386 5.63518 4.204 6.10218C4.067 6.45518 3.904 6.98418 3.86 7.95918C3.813 8.98218 3.802 9.31018 3.802 11.7662V12.2342C3.802 14.6902 3.813 15.0182 3.86 16.0412C3.905 17.0162 4.067 17.5452 4.204 17.8982C4.386 18.3642 4.603 18.6982 4.952 19.0482C5.302 19.3982 5.635 19.6142 6.102 19.7962C6.455 19.9332 6.984 20.0962 7.959 20.1402C9.013 20.1882 9.329 20.1982 12 20.1982H12.08C14.677 20.1982 14.997 20.1882 16.04 20.1402C17.016 20.0952 17.545 19.9332 17.898 19.7962C18.364 19.6142 18.698 19.3982 19.048 19.0482C19.398 18.6982 19.614 18.3652 19.796 17.8982C19.933 17.5452 20.096 17.0162 20.14 16.0412C20.188 14.9862 20.198 14.6712 20.198 12.0002V11.9202C20.198 9.32318 20.188 9.00318 20.14 7.96018C20.095 6.98418 19.933 6.45518 19.796 6.10218C19.6358 5.66775 19.3802 5.27478 19.048 4.95218C18.7254 4.62004 18.3324 4.36444 17.898 4.20418C17.545 4.06718 17.016 3.90418 16.041 3.86018C15.018 3.81318 14.69 3.80218 12.234 3.80218ZM12 6.86518C12.6743 6.86518 13.3421 6.998 13.9651 7.25606C14.5881 7.51412 15.1542 7.89236 15.631 8.36919C16.1078 8.84602 16.4861 9.4121 16.7441 10.0351C17.0022 10.6581 17.135 11.3258 17.135 12.0002C17.135 12.6745 17.0022 13.3423 16.7441 13.9653C16.4861 14.5883 16.1078 15.1543 15.631 15.6312C15.1542 16.108 14.5881 16.4862 13.9651 16.7443C13.3421 17.0024 12.6743 17.1352 12 17.1352C10.6381 17.1352 9.33201 16.5942 8.36901 15.6312C7.40601 14.6682 6.865 13.3621 6.865 12.0002C6.865 10.6383 7.40601 9.33219 8.36901 8.36919C9.33201 7.40619 10.6381 6.86518 12 6.86518ZM12 8.66718C11.116 8.66718 10.2683 9.01834 9.64321 9.6434C9.01815 10.2685 8.667 11.1162 8.667 12.0002C8.667 12.8841 9.01815 13.7319 9.64321 14.357C10.2683 14.982 11.116 15.3332 12 15.3332C12.884 15.3332 13.7317 14.982 14.3568 14.357C14.9818 13.7319 15.333 12.8841 15.333 12.0002C15.333 11.1162 14.9818 10.2685 14.3568 9.6434C13.7317 9.01834 12.884 8.66718 12 8.66718ZM17.338 5.46218C17.6563 5.46218 17.9615 5.58861 18.1865 5.81365C18.4116 6.0387 18.538 6.34392 18.538 6.66218C18.538 6.98044 18.4116 7.28567 18.1865 7.51071C17.9615 7.73575 17.6563 7.86218 17.338 7.86218C17.0197 7.86218 16.7145 7.73575 16.4895 7.51071C16.2644 7.28567 16.138 6.98044 16.138 6.66218C16.138 6.34392 16.2644 6.0387 16.4895 5.81365C16.7145 5.58861 17.0197 5.46218 17.338 5.46218Z" fill="#013300"/>
</svg>
