<svg width="24" height="24" viewBox="0 0 24 24" fill="none" xmlns="http://www.w3.org/2000/svg">
<g clip-path="url(#clip0_2_289)">
<path d="M17.896 17.3664H14.061V11.3139C14.061 9.72968 13.4611 8.64818 12.142 8.64818C11.133 8.64818 10.5719 9.378 10.3108 10.0814C10.2128 10.3338 10.2281 10.6855 10.2281 11.0372V17.3664H6.42891C6.42891 17.3664 6.47788 6.64503 6.42891 5.67046H10.2281V7.50604C10.4526 6.70346 11.6666 5.55801 13.604 5.55801C16.0076 5.55801 17.896 7.24035 17.896 10.863V17.3664ZM2.58804 4.20722H2.56356C1.33931 4.20722 0.545593 3.31314 0.545593 2.17982C0.545593 1.02445 1.36278 0.149109 2.61151 0.149109C3.85921 0.149109 4.6264 1.02225 4.65089 2.17651C4.65089 3.30983 3.85921 4.20722 2.58804 4.20722ZM0.983947 5.66985H4.36592V17.3658H0.983947V5.66985Z" fill="#013300"/>
</g>
<defs>
<clipPath id="clip0_2_289">
<rect width="24" height="24" fill="white"/>
</clipPath>
</defs>
</svg>
