<svg width="24" height="24" viewBox="0 0 24 24" fill="none" xmlns="http://www.w3.org/2000/svg">
<g clip-path="url(#clip0_2_286)">
<path d="M17.6921 11.1237C17.5887 11.0742 17.4837 11.0265 17.3774 10.9808C17.1921 7.56746 15.327 5.61331 12.1952 5.59331C12.181 5.59322 12.1669 5.59322 12.1528 5.59322C10.2795 5.59322 8.72164 6.3928 7.76275 7.84777L9.48512 9.02928C10.2014 7.94247 11.3257 7.71078 12.1536 7.71078C12.1631 7.71078 12.1727 7.71078 12.1822 7.71087C13.2134 7.71745 13.9915 8.01726 14.4951 8.60193C14.8616 9.0276 15.1067 9.61581 15.2281 10.3582C14.3139 10.2028 13.3251 10.155 12.2681 10.2156C9.29059 10.3871 7.37639 12.1237 7.50495 14.5367C7.57019 15.7607 8.17996 16.8137 9.22188 17.5016C10.1028 18.0831 11.2374 18.3674 12.4165 18.3031C13.9738 18.2177 15.1954 17.6236 16.0476 16.5372C16.6949 15.7122 17.1042 14.6431 17.285 13.2959C18.0271 13.7438 18.5771 14.3332 18.8809 15.0417C19.3974 16.2461 19.4275 18.2252 17.8126 19.8387C16.3978 21.2522 14.697 21.8637 12.1267 21.8826C9.27552 21.8614 7.11922 20.9471 5.71726 19.1648C4.40444 17.4959 3.72596 15.0854 3.70065 12.0002C3.72596 8.91491 4.40444 6.50438 5.71726 4.83552C7.11922 3.0533 9.27549 2.13893 12.1266 2.11775C14.9985 2.1391 17.1924 3.05786 18.648 4.84868C19.3618 5.72688 19.8999 6.83128 20.2546 8.11897L22.273 7.58046C21.843 5.99546 21.1664 4.62965 20.2456 3.49693C18.3795 1.20102 15.6503 0.0245766 12.1337 0.000183105H12.1196C8.6102 0.0244919 5.91151 1.20541 4.09854 3.5101C2.48524 5.56098 1.65305 8.41465 1.62509 11.9917L1.625 12.0002L1.62509 12.0086C1.65305 15.5857 2.48524 18.4394 4.09854 20.4903C5.91151 22.7949 8.6102 23.9759 12.1196 24.0002H12.1337C15.2538 23.9786 17.453 23.1617 19.2647 21.3516C21.6351 18.9834 21.5637 16.0151 20.7825 14.1928C20.222 12.8861 19.1534 11.8247 17.6921 11.1237ZM12.3051 16.1886C11.0001 16.2621 9.6443 15.6763 9.57745 14.4217C9.5279 13.4914 10.2395 12.4534 12.3851 12.3298C12.6309 12.3156 12.872 12.3087 13.1089 12.3087C13.8883 12.3087 14.6174 12.3844 15.2802 12.5293C15.033 15.6171 13.5828 16.1184 12.3051 16.1886Z" fill="#013300"/>
</g>
<defs>
<clipPath id="clip0_2_286">
<rect width="24" height="24" fill="white"/>
</clipPath>
</defs>
</svg>
