<svg width="24" height="24" viewBox="0 0 24 24" fill="none" xmlns="http://www.w3.org/2000/svg">
<path d="M8.29 20.2512C15.837 20.2512 19.965 13.9982 19.965 8.57618C19.965 8.39818 19.965 8.22118 19.953 8.04618C20.7562 7.46471 21.4493 6.7448 22 5.92018C21.2511 6.25219 20.4566 6.46994 19.643 6.56618C20.4996 6.05324 21.1408 5.24653 21.447 4.29618C20.6417 4.77407 19.7607 5.11091 18.842 5.29218C18.2234 4.63395 17.405 4.19802 16.5136 4.05189C15.6222 3.90576 14.7075 4.05758 13.9111 4.48385C13.1147 4.91012 12.4811 5.58706 12.1083 6.40984C11.7355 7.23263 11.6444 8.15537 11.849 9.03518C10.2176 8.95343 8.6216 8.52951 7.16465 7.79095C5.70769 7.0524 4.42233 6.01571 3.392 4.74818C2.86732 5.65139 2.70659 6.7206 2.94254 7.73815C3.17848 8.75569 3.79337 9.64506 4.662 10.2252C4.00926 10.2063 3.37063 10.0307 2.8 9.71318V9.76518C2.80039 10.7125 3.1284 11.6305 3.7284 12.3635C4.3284 13.0966 5.16347 13.5996 6.092 13.7872C5.48781 13.9519 4.85389 13.9758 4.239 13.8572C4.50116 14.6727 5.01168 15.3858 5.69913 15.8968C6.38658 16.4078 7.21657 16.6912 8.073 16.7072C7.22212 17.3758 6.24779 17.87 5.20573 18.1617C4.16367 18.4534 3.07432 18.5368 2 18.4072C3.8766 19.6115 6.06019 20.2503 8.29 20.2472" fill="#013300"/>
</svg>
